<?xml version="1.0" standalone="no"?>
<!DOCTYPE svg PUBLIC "-//W3C//DTD SVG 20010904//EN"
 "http://www.w3.org/TR/2001/REC-SVG-20010904/DTD/svg10.dtd">
<svg version="1.0" xmlns="http://www.w3.org/2000/svg"
 width="80.000000pt" height="80.000000pt" viewBox="0 0 80.000000 80.000000"
 preserveAspectRatio="xMidYMid meet">
<metadata>
Created by potrace 1.14, written by Peter Selinger 2001-2017
</metadata>
<g transform="translate(0.000000,80.000000) scale(0.100000,-0.100000)"
fill="#000000" stroke="none">
<path d="M375 680 c-3 -5 -1 -10 4 -10 6 0 11 5 11 10 0 6 -2 10 -4 10 -3 0
-8 -4 -11 -10z"/>
<path d="M406 678 c3 -4 9 -8 15 -8 5 0 9 4 9 8 0 5 -7 9 -15 9 -8 0 -12 -4
-9 -9z"/>
<path d="M293 664 c-46 -17 -122 -84 -146 -130 -8 -16 -17 -45 -21 -64 -5 -27
-1 -21 16 21 36 89 91 142 178 172 25 8 38 15 30 15 -8 0 -34 -6 -57 -14z"/>
<path d="M484 664 c68 -21 157 -111 175 -177 8 -26 16 -45 18 -43 3 3 -2 27
-11 54 -28 84 -143 183 -211 181 -11 0 2 -7 29 -15z"/>
<path d="M345 580 c-4 -6 -11 -8 -16 -5 -5 3 -6 -1 -2 -10 4 -12 8 -13 13 -5
4 7 14 16 21 21 9 6 10 9 2 9 -6 0 -15 -5 -18 -10z"/>
<path d="M495 560 c-3 -5 -1 -10 4 -10 6 0 11 5 11 10 0 6 -2 10 -4 10 -3 0
-8 -4 -11 -10z"/>
<path d="M343 525 c0 -8 4 -12 9 -9 5 3 6 10 3 15 -9 13 -12 11 -12 -6z"/>
<path d="M346 483 c-6 -14 -5 -15 5 -6 7 7 10 15 7 18 -3 3 -9 -2 -12 -12z"/>
<path d="M297 439 c7 -7 15 -10 18 -7 3 3 -2 9 -12 12 -14 6 -15 5 -6 -5z"/>
<path d="M360 440 c-13 -8 -12 -10 3 -10 9 0 17 5 17 10 0 12 -1 12 -20 0z"/>
<path d="M470 438 c0 -4 4 -8 9 -8 6 0 12 4 15 8 3 5 -1 9 -9 9 -8 0 -15 -4
-15 -9z"/>
<path d="M114 400 c0 -16 3 -30 6 -30 4 0 7 14 7 30 0 17 -3 30 -7 30 -3 0 -6
-13 -6 -30z"/>
<path d="M670 421 c0 -6 4 -12 8 -15 5 -3 9 1 9 9 0 8 -4 15 -9 15 -4 0 -8 -4
-8 -9z"/>
<path d="M670 379 c0 -5 5 -7 10 -4 6 3 10 8 10 11 0 2 -4 4 -10 4 -5 0 -10
-5 -10 -11z"/>
<path d="M407 374 c-3 -3 -4 -11 -2 -17 2 -7 9 -39 15 -71 l12 -60 19 25 c15
19 19 20 19 7 0 -9 4 -19 9 -23 8 -4 20 38 34 120 1 6 -2 11 -8 13 -5 2 -15
-14 -21 -35 -7 -21 -12 -32 -13 -25 -2 18 -19 15 -23 -5 -3 -10 -8 1 -12 24
-8 42 -18 58 -29 47z"/>
<path d="M298 347 c-6 -36 3 -127 13 -121 5 3 9 20 9 37 0 25 3 29 10 17 9
-13 13 -12 26 5 l16 20 -2 -20 c-5 -44 0 -69 10 -59 6 6 10 41 8 80 l-3 69
-21 -32 c-16 -25 -23 -30 -32 -21 -7 7 -12 18 -12 24 0 23 -18 24 -22 1z"/>
<path d="M121 348 c-2 -34 38 -105 83 -150 44 -44 129 -85 157 -76 6 2 -13 10
-42 17 -71 18 -157 102 -181 176 -9 28 -17 42 -17 33z"/>
<path d="M659 313 c-19 -70 -106 -155 -177 -173 -28 -8 -52 -17 -52 -21 0 -4
27 1 59 12 79 27 152 98 176 169 9 28 15 53 12 56 -2 2 -10 -17 -18 -43z"/>
</g>
</svg>
